PathFileType	4	(X/Y/Z)	C:\Users\WrightLab\Desktop\Jo\P1_boxCal20.trc
DataRate	CameraRate	NumFrames	NumMarkers	Units	OrigDataRate	OrigDataStartFrame	OrigNumFrames
100.00	100.00	       102	19	mm	100.00	118	       937
Frame#	Time	Headset_Front			Headset_Back			Headset_Left			Headset_Right			Left_Shoulder			Right_Shoulder			Sternum			C7			Left Elbow			Right Elbow			Left Wrist			Right Wrist			Left ASIS			Right ASIS			S2			Left Knee			Right Knee			Left Ankle			Right Ankle			
		X1	Y1	Z1	X2	Y2	Z2	X3	Y3	Z3	X4	Y4	Z4	X5	Y5	Z5	X6	Y6	Z6	X7	Y7	Z7	X8	Y8	Z8	X9	Y9	Z9	X10	Y10	Z10	X11	Y11	Z11	X12	Y12	Z12	X13	Y13	Z13	X14	Y14	Z14	X15	Y15	Z15	X16	Y16	Z16	X17	Y17	Z17	X18	Y18	Z18	X19	Y19	Z19	

118	1.170																																																	-159.78461	491.87079	2396.39063							
119	1.180																																																	-159.82135	491.74896	2396.34619							
120	1.190																																																	-159.65051	491.91086	2395.59326							
121	1.200																																																	-159.68625	491.79678	2395.55225							
122	1.210																																																	-159.75604	491.65021	2395.51318							
123	1.220																																																	-160.53105	491.74063	2393.35767							
124	1.230																																																	-160.98233	491.31146	2390.87158							
125	1.240																																																	-161.09267	491.14096	2390.84277							
126	1.250																																																	-161.06960	491.05048	2390.78125							
127	1.260																																																	-161.21413	491.00528	2390.63086							
128	1.270																																																	-161.35205	491.04395	2390.39502							
129	1.280																																																	-161.40800	490.98975	2390.14038							
130	1.290																																																	-161.75835	490.48087	2389.48315							
131	1.300																																																	-161.85429	490.52228	2389.12646							
132	1.310																																																	-162.37509	490.50269	2388.20557							
133	1.320																																																	-162.48273	490.41660	2388.22046							
134	1.330																																																	-162.97206	490.36017	2387.26196							
135	1.340																																																	-163.00214	489.82486	2386.59155							
136	1.350																																																	-163.00661	489.87103	2386.34937							
137	1.360																																																	-163.86043	489.34988	2384.01758							
138	1.370																																																	-164.04222	489.20428	2383.89575							
139	1.380																																																	-164.01784	489.11902	2383.61401							
140	1.390																																																	-164.02596	489.08115	2383.18945							
141	1.400																																																	-164.09966	489.05264	2383.00537							
142	1.410																																																	-164.13643	488.98688	2382.62354							
143	1.420																																																	-164.22139	488.91425	2382.63257							
144	1.430																																																	-164.23077	488.80060	2382.57690							
145	1.440																																																	-164.34207	488.12216	2381.64331							
146	1.450																																																	-164.26968	488.19504	2381.17163							
147	1.460																																																	-164.24072	488.18481	2380.87476							
148	1.470																																																	-164.22504	488.16534	2380.85547							
149	1.480																																																	-164.31978	488.07761	2380.86206							
150	1.490																																																	-164.25645	488.14340	2380.58643							
151	1.500																																																	-164.88599	487.80246	2378.73169							
152	1.510																																																	-164.80806	487.85721	2378.44702							
153	1.520																																																	-165.18970	487.88770	2377.47461							
154	1.530																																																	-165.09981	487.92523	2377.24365							
155	1.540																																																	-164.98135	487.97339	2376.96948							
156	1.550																																																	-164.78522	488.26953	2376.37573							
157	1.560																																																	-164.84921	488.24469	2376.28564							
158	1.570																																																	-164.83177	488.30508	2376.08569							
159	1.580																																																	-164.81439	488.33972	2375.83667							
160	1.590																																																	-164.73497	488.32632	2375.78467							
161	1.600																																																	-164.71710	488.41895	2375.56226							
162	1.610																																																	-164.65157	488.38199	2375.50537							
163	1.620																																																	-164.58946	488.03711	2374.16455							
164	1.630																																																	-164.60030	487.57666	2372.97168							
165	1.640																																																	-164.55643	487.71945	2372.53320							
166	1.650																																																	-164.46170	487.79193	2372.28662							
167	1.660																																																	-164.41232	487.81851	2372.03223							
168	1.670																																																	-164.27634	487.79773	2371.83936							
169	1.680																																																	-164.33321	487.69446	2371.81592							
170	1.690																																																	-164.35155	487.59906	2371.77515							
171	1.700																																																	-164.34760	487.46658	2371.70190							
172	1.710																																																	-164.35660	487.37808	2371.65942							
173	1.720																																																	-164.31636	487.29639	2371.36157							
174	1.730																																																	-164.37959	487.15839	2371.32324							
175	1.740																																																	-164.37660	487.08160	2371.28027							
176	1.750																																																	-164.39355	486.95273	2371.22046							
177	1.760																																																	-164.41753	486.82977	2371.16797							
178	1.770																																																	-164.39815	486.86218	2371.17432							
179	1.780																																																	-164.45407	486.78925	2371.16675							
180	1.790																																																	-164.99785	486.58350	2370.09937							
181	1.800																																																	-164.96843	486.55167	2370.06567							
182	1.810																																																	-165.00882	486.56473	2370.09546							
183	1.820																																																	-165.32701	486.77905	2369.47705							
184	1.830																																																	-164.92627	486.61646	2369.84546							
185	1.840																																																	-164.89067	486.54367	2369.78613							
186	1.850																																																	-165.22835	486.41483	2368.88696							
187	1.860																																																	-165.27054	486.34702	2368.87427							
188	1.870																																																	-165.33524	486.75049	2369.23486							
189	1.880																																																	-165.37944	486.26529	2368.89209							
190	1.890																																																	-165.75420	486.10406	2368.15479							
191	1.900																																																	-166.17975	486.49390	2368.85669							
192	1.910																																																	-166.57730	486.08972	2367.80078							
193	1.920																																																	-166.79727	486.09247	2367.75293							
194	1.930																																																	-167.18814	486.72290	2367.98096							
195	1.940																																																	-167.33676	486.81137	2367.77637							
196	1.950																																																	-167.46823	486.82257	2367.85693							
197	1.960																																																	-167.76633	486.75076	2368.04053							
198	1.970																																																	-168.04967	486.61551	2368.18066							
199	1.980																																																	-168.37572	486.56378	2368.47339							
200	1.990																																																	-168.50047	486.46167	2368.48901							
201	2.000																																																	-168.94025	485.66275	2367.90869							
202	2.010																																																	-169.16225	485.52426	2368.07446							
203	2.020																																																	-169.58907	485.39267	2368.29761							
204	2.030																																																	-170.13629	485.36163	2368.32422							
205	2.040																																																	-171.07875	484.92371	2366.59399							
206	2.050																																																	-172.20699	484.84488	2366.25464							
207	2.060																																																	-172.77794	484.74286	2366.72729							
208	2.070																																																	-173.79950	484.96225	2366.96655							
209	2.080																																																	-174.67625	485.18433	2366.35156							
210	2.090																																																	-175.20651	485.00485	2366.40674							
211	2.100																																																	-176.06071	484.73676	2366.90186							
212	2.110																																																	-177.47829	484.77261	2365.90210							
213	2.120																																																	-178.53679	484.32294	2364.69312							
214	2.130																																																	-179.34483	484.73529	2364.57373							
215	2.140																																																	-180.48982	485.10565	2365.53052							
216	2.150																																																	-182.10316	484.05841	2363.24146							
217	2.160																																																	-183.23967	483.88733	2362.49927							
218	2.170																																																	-183.80959	483.85620	2362.53467							
219	2.180																																																	-185.31963	484.38797	2361.79639							
